<svg width="16" height="16" viewBox="0 0 16 16" fill="none" xmlns="http://www.w3.org/2000/svg">
<rect width="16" height="16" fill="black" style="fill:black;fill-opacity:1;"/>
<path d="M2.37146 5.34253V6.00903C2.37146 6.86353 2.86279 7.41467 3.62756 7.41467C4.38806 7.41467 4.87939 6.8678 4.87939 6.00903V5.34253C4.87939 4.48804 4.38806 3.94116 3.62756 3.94116C2.86279 3.94116 2.37146 4.48804 2.37146 5.34253ZM4.88367 7.29077H4.80249C4.56323 7.80347 4.07617 8.0769 3.41394 8.0769C2.34155 8.0769 1.64087 7.30359 1.64087 6.11157V5.24854C1.64087 4.06079 2.34155 3.28748 3.41394 3.28748C4.08472 3.28748 4.58032 3.57373 4.78113 4.08215H4.85803V1.54431H5.59717V8H4.88367V7.29077Z" fill="white" style="fill:white;fill-opacity:1;"/>
<path d="M8.93896 10.5863V14H8.28528V10.7999C8.28528 10.236 8.0802 9.94116 7.69141 9.94116C7.28552 9.94116 7.03772 10.2958 7.03772 10.8726V14H6.38831V10.7957C6.38831 10.236 6.18323 9.94116 5.79016 9.94116C5.38 9.94116 5.12366 10.2958 5.12366 10.8726V14H4.46997V9.36438H5.11938V10.0181H5.19629C5.31165 9.55237 5.6449 9.27893 6.08069 9.27893C6.51648 9.27893 6.8241 9.5481 6.92236 10.0052H6.99927C7.1189 9.56091 7.4906 9.27893 7.9563 9.27893C8.60144 9.27893 8.93896 9.72754 8.93896 10.5863Z" fill="white" style="fill:white;fill-opacity:1;"/>
<path d="M8.75574 3.90271C7.98242 3.90271 7.51672 4.4325 7.51672 5.32117H9.9563C9.9563 4.43677 9.50342 3.90271 8.75574 3.90271ZM9.9563 6.80371H10.6613C10.5203 7.56848 9.7854 8.08545 8.81128 8.08545C7.53809 8.08545 6.79895 7.32068 6.79895 6.00049V5.30408C6.79895 4.08215 7.58081 3.27893 8.76001 3.27893C9.96484 3.27893 10.6741 4.07788 10.6741 5.41943V5.87231H7.51672V6.0603C7.51672 6.91052 8.02087 7.4574 8.81128 7.4574C9.39661 7.4574 9.82812 7.20959 9.9563 6.80371Z" fill="white" style="fill:white;fill-opacity:1;"/>
<path d="M11.7045 14.0854C10.4783 14.0854 9.69641 13.2865 9.69641 12.0347V11.334C9.69641 10.0822 10.4783 9.2832 11.7045 9.2832C12.9307 9.2832 13.7125 10.0822 13.7125 11.334V12.0347C13.7125 13.2865 12.9307 14.0854 11.7045 14.0854ZM11.7045 9.92407C10.9098 9.92407 10.4142 10.488 10.4142 11.3981V11.9663C10.4142 12.8806 10.9098 13.4403 11.7045 13.4403C12.4991 13.4403 12.9948 12.8806 12.9948 11.9663V11.3981C12.9948 10.488 12.4991 9.92407 11.7045 9.92407Z" fill="white" style="fill:white;fill-opacity:1;"/>
</svg>
