<svg width="93" height="13" viewBox="0 0 93 13" fill="none" xmlns="http://www.w3.org/2000/svg">
<path d="M1.50781 7.14062V8.35938C1.50781 9.92188 2.40625 10.9297 3.80469 10.9297C5.19531 10.9297 6.09375 9.92969 6.09375 8.35938V7.14062C6.09375 5.57812 5.19531 4.57812 3.80469 4.57812C2.40625 4.57812 1.50781 5.57812 1.50781 7.14062ZM6.10156 10.7031H5.95312C5.51562 11.6406 4.625 12.1406 3.41406 12.1406C1.45312 12.1406 0.171875 10.7266 0.171875 8.54688V6.96875C0.171875 4.79688 1.45312 3.38281 3.41406 3.38281C4.64062 3.38281 5.54688 3.90625 5.91406 4.83594H6.05469V0.195312H7.40625V12H6.10156V10.7031ZM13.9297 4.50781C12.5156 4.50781 11.6641 5.47656 11.6641 7.10156H16.125C16.125 5.48438 15.2969 4.50781 13.9297 4.50781ZM16.125 9.8125H17.4141C17.1562 11.2109 15.8125 12.1562 14.0312 12.1562C11.7031 12.1562 10.3516 10.7578 10.3516 8.34375V7.07031C10.3516 4.83594 11.7812 3.36719 13.9375 3.36719C16.1406 3.36719 17.4375 4.82812 17.4375 7.28125V8.10938H11.6641V8.45312C11.6641 10.0078 12.5859 11.0078 14.0312 11.0078C15.1016 11.0078 15.8906 10.5547 16.125 9.8125ZM27.8125 5.75781V12H26.6172V6.14844C26.6172 5.11719 26.2422 4.57812 25.5312 4.57812C24.7891 4.57812 24.3359 5.22656 24.3359 6.28125V12H23.1484V6.14062C23.1484 5.11719 22.7734 4.57812 22.0547 4.57812C21.3047 4.57812 20.8359 5.22656 20.8359 6.28125V12H19.6406V3.52344H20.8281V4.71875H20.9688C21.1797 3.86719 21.7891 3.36719 22.5859 3.36719C23.3828 3.36719 23.9453 3.85938 24.125 4.69531H24.2656C24.4844 3.88281 25.1641 3.36719 26.0156 3.36719C27.1953 3.36719 27.8125 4.1875 27.8125 5.75781ZM33.6172 12.1562C31.375 12.1562 29.9453 10.6953 29.9453 8.40625V7.125C29.9453 4.83594 31.375 3.375 33.6172 3.375C35.8594 3.375 37.2891 4.83594 37.2891 7.125V8.40625C37.2891 10.6953 35.8594 12.1562 33.6172 12.1562ZM33.6172 4.54688C32.1641 4.54688 31.2578 5.57812 31.2578 7.24219V8.28125C31.2578 9.95312 32.1641 10.9766 33.6172 10.9766C35.0703 10.9766 35.9766 9.95312 35.9766 8.28125V7.24219C35.9766 5.57812 35.0703 4.54688 33.6172 4.54688ZM43.1987 12.1465C41.0967 12.1465 39.7563 10.7769 39.7563 8.63086V7.42969C39.7563 5.28369 41.0967 3.91406 43.1987 3.91406C45.3008 3.91406 46.6411 5.28369 46.6411 7.42969V8.63086C46.6411 10.7769 45.3008 12.1465 43.1987 12.1465ZM43.1987 5.0127C41.8364 5.0127 40.9868 5.97949 40.9868 7.53955V8.51367C40.9868 10.0811 41.8364 11.0405 43.1987 11.0405C44.561 11.0405 45.4106 10.0811 45.4106 8.51367V7.53955C45.4106 5.97949 44.561 5.0127 43.1987 5.0127ZM52.1621 12.1367C50.2002 12.1367 48.9492 10.8584 48.9492 8.85547V7.73438C48.9492 5.73145 50.2002 4.45312 52.1621 4.45312C54.124 4.45312 55.375 5.73145 55.375 7.73438V8.85547C55.375 10.8584 54.124 12.1367 52.1621 12.1367ZM52.1621 5.47852C50.8906 5.47852 50.0977 6.38086 50.0977 7.83691V8.74609C50.0977 10.209 50.8906 11.1045 52.1621 11.1045C53.4336 11.1045 54.2266 10.209 54.2266 8.74609V7.83691C54.2266 6.38086 53.4336 5.47852 52.1621 5.47852ZM59.8892 12.1074C58.3477 12.1074 57.3647 11.103 57.3647 9.5293V8.64844C57.3647 7.07471 58.3477 6.07031 59.8892 6.07031C61.4307 6.07031 62.4136 7.07471 62.4136 8.64844V9.5293C62.4136 11.103 61.4307 12.1074 59.8892 12.1074ZM59.8892 6.87598C58.8901 6.87598 58.2671 7.58496 58.2671 8.729V9.44336C58.2671 10.5928 58.8901 11.2964 59.8892 11.2964C60.8882 11.2964 61.5112 10.5928 61.5112 9.44336V8.729C61.5112 7.58496 60.8882 6.87598 59.8892 6.87598ZM66.0708 12.0879C64.8096 12.0879 64.0054 11.2661 64.0054 9.97852V9.25781C64.0054 7.97021 64.8096 7.14844 66.0708 7.14844C67.332 7.14844 68.1362 7.97021 68.1362 9.25781V9.97852C68.1362 11.2661 67.332 12.0879 66.0708 12.0879ZM66.0708 7.80762C65.2534 7.80762 64.7437 8.3877 64.7437 9.32373V9.9082C64.7437 10.8486 65.2534 11.4243 66.0708 11.4243C66.8882 11.4243 67.3979 10.8486 67.3979 9.9082V9.32373C67.3979 8.3877 66.8882 7.80762 66.0708 7.80762ZM71.3252 12.0781C70.2041 12.0781 69.4893 11.3477 69.4893 10.2031V9.5625C69.4893 8.41797 70.2041 7.6875 71.3252 7.6875C72.4463 7.6875 73.1611 8.41797 73.1611 9.5625V10.2031C73.1611 11.3477 72.4463 12.0781 71.3252 12.0781ZM71.3252 8.27344C70.5986 8.27344 70.1455 8.78906 70.1455 9.62109V10.1406C70.1455 10.9766 70.5986 11.4883 71.3252 11.4883C72.0518 11.4883 72.5049 10.9766 72.5049 10.1406V9.62109C72.5049 8.78906 72.0518 8.27344 71.3252 8.27344ZM75.9614 12.0684C74.9805 12.0684 74.355 11.4292 74.355 10.4277V9.86719C74.355 8.86572 74.9805 8.22656 75.9614 8.22656C76.9424 8.22656 77.5679 8.86572 77.5679 9.86719V10.4277C77.5679 11.4292 76.9424 12.0684 75.9614 12.0684ZM75.9614 8.73926C75.3257 8.73926 74.9292 9.19043 74.9292 9.91846V10.373C74.9292 11.1045 75.3257 11.5522 75.9614 11.5522C76.5972 11.5522 76.9937 11.1045 76.9937 10.373V9.91846C76.9937 9.19043 76.5972 8.73926 75.9614 8.73926ZM79.9795 12.0586C79.1387 12.0586 78.6025 11.5107 78.6025 10.6523V10.1719C78.6025 9.31348 79.1387 8.76562 79.9795 8.76562C80.8203 8.76562 81.3564 9.31348 81.3564 10.1719V10.6523C81.3564 11.5107 80.8203 12.0586 79.9795 12.0586ZM79.9795 9.20508C79.4346 9.20508 79.0947 9.5918 79.0947 10.2158V10.6055C79.0947 11.2324 79.4346 11.6162 79.9795 11.6162C80.5244 11.6162 80.8643 11.2324 80.8643 10.6055V10.2158C80.8643 9.5918 80.5244 9.20508 79.9795 9.20508ZM83.3794 12.0488C82.6787 12.0488 82.2319 11.5923 82.2319 10.877V10.4766C82.2319 9.76123 82.6787 9.30469 83.3794 9.30469C84.0801 9.30469 84.5269 9.76123 84.5269 10.4766V10.877C84.5269 11.5923 84.0801 12.0488 83.3794 12.0488ZM83.3794 9.6709C82.9253 9.6709 82.6421 9.99316 82.6421 10.5132V10.8379C82.6421 11.3604 82.9253 11.6802 83.3794 11.6802C83.8335 11.6802 84.1167 11.3604 84.1167 10.8379V10.5132C84.1167 9.99316 83.8335 9.6709 83.3794 9.6709ZM86.1611 12.0391C85.6006 12.0391 85.2432 11.6738 85.2432 11.1016V10.7812C85.2432 10.209 85.6006 9.84375 86.1611 9.84375C86.7217 9.84375 87.0791 10.209 87.0791 10.7812V11.1016C87.0791 11.6738 86.7217 12.0391 86.1611 12.0391ZM86.1611 10.1367C85.7979 10.1367 85.5713 10.3945 85.5713 10.8105V11.0703C85.5713 11.4883 85.7979 11.7441 86.1611 11.7441C86.5244 11.7441 86.751 11.4883 86.751 11.0703V10.8105C86.751 10.3945 86.5244 10.1367 86.1611 10.1367ZM88.3247 12.0293C87.9043 12.0293 87.6362 11.7554 87.6362 11.3262V11.0859C87.6362 10.6567 87.9043 10.3828 88.3247 10.3828C88.7451 10.3828 89.0132 10.6567 89.0132 11.0859V11.3262C89.0132 11.7554 88.7451 12.0293 88.3247 12.0293ZM88.3247 10.6025C88.0522 10.6025 87.8823 10.7959 87.8823 11.1079V11.3027C87.8823 11.6162 88.0522 11.8081 88.3247 11.8081C88.5972 11.8081 88.7671 11.6162 88.7671 11.3027V11.1079C88.7671 10.7959 88.5972 10.6025 88.3247 10.6025ZM89.8701 12.0195C89.5898 12.0195 89.4111 11.8369 89.4111 11.5508V11.3906C89.4111 11.1045 89.5898 10.9219 89.8701 10.9219C90.1504 10.9219 90.3291 11.1045 90.3291 11.3906V11.5508C90.3291 11.8369 90.1504 12.0195 89.8701 12.0195ZM89.8701 11.0684C89.6885 11.0684 89.5752 11.1973 89.5752 11.4053V11.5352C89.5752 11.7441 89.6885 11.8721 89.8701 11.8721C90.0518 11.8721 90.165 11.7441 90.165 11.5352V11.4053C90.165 11.1973 90.0518 11.0684 89.8701 11.0684ZM90.7974 12.0098C90.6572 12.0098 90.5679 11.9185 90.5679 11.7754V11.6953C90.5679 11.5522 90.6572 11.4609 90.7974 11.4609C90.9375 11.4609 91.0269 11.5522 91.0269 11.6953V11.7754C91.0269 11.9185 90.9375 12.0098 90.7974 12.0098ZM90.7974 11.5342C90.7065 11.5342 90.6499 11.5986 90.6499 11.7026V11.7676C90.6499 11.8721 90.7065 11.936 90.7974 11.936C90.8882 11.936 90.9448 11.8721 90.9448 11.7676V11.7026C90.9448 11.5986 90.8882 11.5342 90.7974 11.5342ZM91.4155 12.0098C91.2754 12.0098 91.186 11.9185 91.186 11.7754V11.6953C91.186 11.5522 91.2754 11.4609 91.4155 11.4609C91.5557 11.4609 91.645 11.5522 91.645 11.6953V11.7754C91.645 11.9185 91.5557 12.0098 91.4155 12.0098ZM91.4155 11.5342C91.3247 11.5342 91.2681 11.5986 91.2681 11.7026V11.7676C91.2681 11.8721 91.3247 11.936 91.4155 11.936C91.5063 11.936 91.563 11.8721 91.563 11.7676V11.7026C91.563 11.5986 91.5063 11.5342 91.4155 11.5342ZM92.0337 12.0098C91.8936 12.0098 91.8042 11.9185 91.8042 11.7754V11.6953C91.8042 11.5522 91.8936 11.4609 92.0337 11.4609C92.1738 11.4609 92.2632 11.5522 92.2632 11.6953V11.7754C92.2632 11.9185 92.1738 12.0098 92.0337 12.0098ZM92.0337 11.5342C91.9429 11.5342 91.8862 11.5986 91.8862 11.7026V11.7676C91.8862 11.8721 91.9429 11.936 92.0337 11.936C92.1245 11.936 92.1812 11.8721 92.1812 11.7676V11.7026C92.1812 11.5986 92.1245 11.5342 92.0337 11.5342ZM92.6519 12.0098C92.5117 12.0098 92.4224 11.9185 92.4224 11.7754V11.6953C92.4224 11.5522 92.5117 11.4609 92.6519 11.4609C92.792 11.4609 92.8813 11.5522 92.8813 11.6953V11.7754C92.8813 11.9185 92.792 12.0098 92.6519 12.0098ZM92.6519 11.5342C92.561 11.5342 92.5044 11.5986 92.5044 11.7026V11.7676C92.5044 11.8721 92.561 11.936 92.6519 11.936C92.7427 11.936 92.7993 11.8721 92.7993 11.7676V11.7026C92.7993 11.5986 92.7427 11.5342 92.6519 11.5342Z" fill="white" style="fill:white;fill-opacity:1;"/>
</svg>
